# xmcd
#
# Track frame offsets:
#	150
#	27814
#	77986
#	91793
#	118088
#	149396
#	203082
#
# Disc length: 3054 seconds
#
# Revision: 1
# Processed by: cddbd v1.5.2PL0 Copyright (c) Steve Scherf et al.
# Submitted via: audiograbber 1.83.01
#
DISCID=560bec07
DTITLE=Grateful Dead - 86-12-31 Henry J Kaiser Convention Centre, Oakland CA
DYEAR=1900
DGENRE=
TTITLE0=Jack Straw
TTITLE1=Sugaree
TTITLE2=Me and My Uncle
TTITLE3=Mexicali Blues
TTITLE4=Candyman
TTITLE5=Desolation Row
TTITLE6=US Blues
EXTD=
EXTT0=
EXTT1=
EXTT2=
EXTT3=
EXTT4=
EXTT5=
EXTT6=
PLAYORDER=
